<svg width="1380" height="349" viewBox="0 0 1380 349" fill="none" xmlns="http://www.w3.org/2000/svg">
<g clip-path="url(#clip0_19_4055)">
<path d="M195.878 138.335C202.381 138.335 207.664 143.618 207.664 150.12V372.413H168.65V294.387H62.9899C56.4877 294.387 51.6111 289.511 51.6111 283.008V267.159C51.6111 260.657 46.3281 255.374 39.8259 255.374H23.9768C17.4746 255.374 12.598 250.497 12.598 243.995V150.12C12.598 143.618 17.4746 138.335 23.9768 138.335H39.8259C46.3281 138.335 51.6111 133.458 51.6111 126.956V111.107C51.6111 104.605 56.4877 99.3216 62.9899 99.3216H156.865C163.367 99.3216 168.65 104.605 168.65 111.107V126.956C168.65 133.458 173.527 138.335 180.029 138.335H195.878ZM62.9899 255.374H168.65V150.12C168.65 143.618 163.367 138.335 156.865 138.335H62.9899C56.4877 138.335 51.6111 143.618 51.6111 150.12V243.995C51.6111 250.497 56.4877 255.374 62.9899 255.374ZM394.532 99.3216H433.545V243.995C433.545 250.497 428.262 255.374 421.759 255.374H405.91C399.408 255.374 394.532 260.657 394.532 267.159V283.008C394.532 289.511 389.249 294.387 382.746 294.387H288.871C282.369 294.387 277.492 289.511 277.492 283.008V267.159C277.492 260.657 272.209 255.374 265.707 255.374H249.858C243.356 255.374 238.479 250.497 238.479 243.995V99.3216H277.492V243.995C277.492 250.497 282.369 255.374 288.871 255.374H382.746C389.249 255.374 394.532 250.497 394.532 243.995V99.3216ZM644.729 138.335C651.231 138.335 656.514 143.618 656.514 150.12V243.995C656.514 250.497 651.231 255.374 644.729 255.374H628.88C622.378 255.374 617.501 260.657 617.501 267.159V283.008C617.501 289.511 612.218 294.387 605.716 294.387H511.841C505.339 294.387 500.462 289.511 500.462 283.008V267.159C500.462 260.657 495.179 255.374 488.677 255.374H472.828C466.325 255.374 461.449 250.497 461.449 243.995V150.12C461.449 143.618 466.325 138.335 472.828 138.335H488.677C495.179 138.335 500.462 133.458 500.462 126.956V111.107C500.462 104.605 505.339 99.3216 511.841 99.3216H605.716C612.218 99.3216 617.501 104.605 617.501 111.107V126.956C617.501 133.458 622.378 138.335 628.88 138.335H644.729ZM617.501 243.995V150.12C617.501 143.618 612.218 138.335 605.716 138.335H511.841C505.339 138.335 500.462 143.618 500.462 150.12V243.995C500.462 250.497 505.339 255.374 511.841 255.374H605.716C612.218 255.374 617.501 250.497 617.501 243.995ZM711.78 138.335C718.282 138.335 723.565 133.458 723.565 126.956V111.107C723.565 104.605 728.442 99.3216 734.944 99.3216H845.481V138.335H734.944C728.442 138.335 723.565 143.618 723.565 150.12V294.387H684.552V150.12C684.552 143.618 689.429 138.335 695.931 138.335H711.78ZM1020.38 99.3216H1059.4V243.995C1059.4 250.497 1054.11 255.374 1047.61 255.374H1031.76C1025.26 255.374 1020.38 260.657 1020.38 267.159V283.008C1020.38 289.511 1015.1 294.387 1008.6 294.387H914.722C908.22 294.387 903.343 289.511 903.343 283.008V267.159C903.343 260.657 898.06 255.374 891.558 255.374H875.709C869.207 255.374 864.33 250.497 864.33 243.995V99.3216H903.343V243.995C903.343 250.497 908.22 255.374 914.722 255.374H1008.6C1015.1 255.374 1020.38 250.497 1020.38 243.995V99.3216ZM1257.58 99.3216H1312.44C1318.94 99.3216 1324.22 104.605 1324.22 111.107V126.956C1324.22 133.458 1329.1 138.335 1335.6 138.335H1351.45C1357.95 138.335 1363.24 143.618 1363.24 150.12V294.387H1324.22V150.12C1324.22 143.618 1318.94 138.335 1312.44 138.335H1257.58C1251.07 138.335 1246.2 143.618 1246.2 150.12V216.361H1207.18V150.12C1207.18 143.618 1201.9 138.335 1195.4 138.335H1140.54C1134.03 138.335 1129.16 143.618 1129.16 150.12V294.387H1090.14V150.12C1090.14 143.618 1095.02 138.335 1101.52 138.335H1117.37C1123.87 138.335 1129.16 133.458 1129.16 126.956V111.107C1129.16 104.605 1134.03 99.3216 1140.54 99.3216H1195.4C1201.9 99.3216 1207.18 104.605 1207.18 111.107V126.956C1207.18 133.458 1212.06 138.335 1218.56 138.335H1234.41C1240.91 138.335 1246.2 133.458 1246.2 126.956V111.107C1246.2 104.605 1251.07 99.3216 1257.58 99.3216Z" fill="url(#paint0_linear_19_4055)"/>
</g>
<defs>
<linearGradient id="paint0_linear_19_4055" x1="599.127" y1="9.443" x2="627.9" y2="395.112" gradientUnits="userSpaceOnUse">
<stop stop-color="#28282C"/>
<stop offset="0.819" stop-color="#060707"/>
</linearGradient>
<clipPath id="clip0_19_4055">
<rect width="1379.02" height="482.835" fill="white"/>
</clipPath>
</defs>
</svg>
