<svg width="1721" height="355" viewBox="0 0 1721 355" fill="none" xmlns="http://www.w3.org/2000/svg">
<path d="M600.549 130.177C606.708 130.177 611.713 135.181 611.713 141.34V351.912H574.757V278H474.668C468.509 278 463.889 273.381 463.889 267.221V252.208C463.889 246.049 458.885 241.044 452.726 241.044H437.712C431.553 241.044 426.934 236.425 426.934 230.265V141.34C426.934 135.181 431.553 130.177 437.712 130.177H452.726C458.885 130.177 463.889 125.557 463.889 119.398V104.385C463.889 98.2254 468.509 93.2209 474.668 93.2209H563.593C569.752 93.2209 574.757 98.2254 574.757 104.385V119.398C574.757 125.557 579.376 130.177 585.536 130.177H600.549ZM474.668 241.044H574.757V141.34C574.757 135.181 569.752 130.177 563.593 130.177H474.668C468.509 130.177 463.889 135.181 463.889 141.34V230.265C463.889 236.425 468.509 241.044 474.668 241.044ZM788.726 93.2209H825.682V230.265C825.682 236.425 820.678 241.044 814.519 241.044H799.505C793.346 241.044 788.726 246.049 788.726 252.208V267.221C788.726 273.381 783.722 278 777.563 278H688.638C682.479 278 677.859 273.381 677.859 267.221V252.208C677.859 246.049 672.855 241.044 666.695 241.044H651.682C645.523 241.044 640.903 236.425 640.903 230.265V93.2209H677.859V230.265C677.859 236.425 682.479 241.044 688.638 241.044H777.563C783.722 241.044 788.726 236.425 788.726 230.265V93.2209ZM1025.73 130.177C1031.89 130.177 1036.89 135.181 1036.89 141.34V230.265C1036.89 236.425 1031.89 241.044 1025.73 241.044H1010.72C1004.56 241.044 999.938 246.049 999.938 252.208V267.221C999.938 273.381 994.934 278 988.774 278H899.85C893.69 278 889.071 273.381 889.071 267.221V252.208C889.071 246.049 884.066 241.044 877.907 241.044H862.894C856.734 241.044 852.115 236.425 852.115 230.265V141.34C852.115 135.181 856.734 130.177 862.894 130.177H877.907C884.066 130.177 889.071 125.557 889.071 119.398V104.385C889.071 98.2254 893.69 93.2209 899.85 93.2209H988.774C994.934 93.2209 999.938 98.2254 999.938 104.385V119.398C999.938 125.557 1004.56 130.177 1010.72 130.177H1025.73ZM999.938 230.265V141.34C999.938 135.181 994.934 130.177 988.774 130.177H899.85C893.69 130.177 889.071 135.181 889.071 141.34V230.265C889.071 236.425 893.69 241.044 899.85 241.044H988.774C994.934 241.044 999.938 236.425 999.938 230.265ZM1089.25 130.177C1095.4 130.177 1100.41 125.557 1100.41 119.398V104.385C1100.41 98.2254 1105.03 93.2209 1111.19 93.2209H1215.9V130.177H1111.19C1105.03 130.177 1100.41 135.181 1100.41 141.34V278H1063.45V141.34C1063.45 135.181 1068.07 130.177 1074.23 130.177H1089.25ZM1381.57 93.2209H1418.53V230.265C1418.53 236.425 1413.53 241.044 1407.37 241.044H1392.35C1386.19 241.044 1381.57 246.049 1381.57 252.208V267.221C1381.57 273.381 1376.57 278 1370.41 278H1281.49C1275.33 278 1270.71 273.381 1270.71 267.221V252.208C1270.71 246.049 1265.7 241.044 1259.54 241.044H1244.53C1238.37 241.044 1233.75 236.425 1233.75 230.265V93.2209H1270.71V230.265C1270.71 236.425 1275.33 241.044 1281.49 241.044H1370.41C1376.57 241.044 1381.57 236.425 1381.57 230.265V93.2209ZM1606.26 93.2209H1658.23C1664.39 93.2209 1669.39 98.2254 1669.39 104.385V119.398C1669.39 125.557 1674.01 130.177 1680.17 130.177H1695.18C1701.34 130.177 1706.35 135.181 1706.35 141.34V278H1669.39V141.34C1669.39 135.181 1664.39 130.177 1658.23 130.177H1606.26C1600.1 130.177 1595.48 135.181 1595.48 141.34V204.088H1558.52V141.34C1558.52 135.181 1553.52 130.177 1547.36 130.177H1495.39C1489.23 130.177 1484.61 135.181 1484.61 141.34V278H1447.66V141.34C1447.66 135.181 1452.28 130.177 1458.44 130.177H1473.45C1479.61 130.177 1484.61 125.557 1484.61 119.398V104.385C1484.61 98.2254 1489.23 93.2209 1495.39 93.2209H1547.36C1553.52 93.2209 1558.52 98.2254 1558.52 104.385V119.398C1558.52 125.557 1563.14 130.177 1569.3 130.177H1584.32C1590.48 130.177 1595.48 125.557 1595.48 119.398V104.385C1595.48 98.2254 1600.1 93.2209 1606.26 93.2209Z" fill="white"/>
<path d="M155.277 22.1028C196.801 20.6064 237.251 35.4952 267.899 63.5559C298.488 91.435 316.682 130.372 318.441 171.722C320.022 212.76 305.011 252.706 276.798 282.549C247.018 314.459 207.776 331.358 164.366 332.91C164.303 332.915 164.242 332.917 164.179 332.922C122.143 334.252 80.3782 318.535 49.6678 290.153C19.1944 262.244 1.30241 223.199 0.0623749 181.896C-1.09431 141.391 13.8756 102.084 41.6815 72.6096C71.979 39.988 110.41 23.8389 154.604 22.1565C154.827 22.1389 155.052 22.1206 155.277 22.1028ZM90.0887 209.914C63.7505 219.859 52.4244 251.875 61.868 277.454C68.4616 295.317 87.05 307.401 103.817 314.806C111.613 318.256 119.72 320.951 128.029 322.858C137.128 324.924 146.411 326.075 155.74 326.293C155.895 317.228 155.932 309.388 154.72 300.304C151.28 274.6 138.851 250.526 120.999 231.861C113.696 224.224 104.42 216.888 95.0428 211.997C94.0164 211.462 91.1413 210.062 90.0887 209.914ZM228.217 209.894C202.034 221.504 181.246 247.217 170.994 273.571C163.744 292.207 162.502 306.737 162.818 326.293C173.096 325.909 180.92 325.114 191.034 322.93C213.309 317.868 239.857 305.762 252.52 285.936C267.154 263.023 259.512 227.827 236.205 213.49C234.134 212.214 230.607 210.429 228.217 209.894ZM159.361 63.4954C153.382 95.5386 135.128 123.982 108.489 142.767C87.3497 157.454 62.7581 165.354 37.1464 166.863C27.155 167.451 17.1015 167.131 7.08874 167.214C6.30046 174.165 6.49033 178.412 6.88952 185.327C18.8948 185.313 30.867 185.011 42.826 186.085C73.1542 188.808 101.651 201.328 123.295 222.939C138.708 238.548 150.073 257.687 156.398 278.691C157.705 283.044 158.365 286.613 159.343 290.994C160.961 284.498 161.496 280.607 163.81 273.845C173.586 244.825 193.255 220.165 219.374 204.178C236.937 193.602 258.264 187.257 278.648 185.831C289.456 185.074 300.592 185.323 311.456 185.321C312.265 180.053 311.921 172.497 311.431 167.191C299.76 167.205 288.021 167.498 276.399 166.5C246.162 163.906 216.261 151.394 194.667 129.794C178.575 113.696 166.752 92.4571 160.984 70.4632C160.485 68.5597 160.023 65.1579 159.361 63.4954ZM162.811 28.7532C162.713 36.3768 162.638 42.3517 163.496 50.0296C166.437 76.5788 178.106 101.401 196.678 120.601C203.871 127.973 215.978 137.945 225.662 141.646C233.834 139.273 241.178 134.659 246.858 128.324C266.063 106.68 264.151 75.014 242.085 56.2913C219.852 37.4245 191.482 29.5779 162.811 28.7532ZM155.732 28.7591C153.838 28.8076 151.894 28.8288 150.012 28.9944C122.328 30.7429 89.3091 40.8781 70.4784 62.3059C61.9143 72.0775 57.6633 84.8953 58.6903 97.8479C59.5511 110.009 65.2245 122.842 74.3192 131.062C79.9191 136.077 85.6347 139.639 92.9667 141.639C111.46 133.055 126.943 117.492 137.698 100.372C151.345 78.6496 156.891 54.2575 155.732 28.7591Z" fill="white"/>
</svg>
