<svg width="988" height="914" viewBox="0 0 988 914" fill="none" xmlns="http://www.w3.org/2000/svg">
<g clip-path="url(#clip0_1_45)">
<path d="M482.394 0.302181C604.442 -4.09606 723.333 39.6625 813.414 122.139C903.323 204.082 956.798 318.528 961.969 440.066C966.615 560.684 922.494 678.092 839.569 765.809C752.039 859.599 636.698 909.269 509.108 913.832C508.922 913.846 508.743 913.854 508.556 913.868C385.004 917.776 262.248 871.58 171.983 788.159C82.415 706.129 29.8282 591.369 26.1834 469.969C22.7833 350.917 66.7815 235.385 148.51 148.752C237.561 52.8694 350.518 5.4024 480.416 0.457454C481.071 0.405754 481.733 0.35457 482.394 0.302181ZM290.791 552.322C213.377 581.552 180.085 675.652 207.843 750.835C227.222 803.339 281.859 838.856 331.142 860.62C354.054 870.76 377.883 878.681 402.304 884.286C429.048 890.359 456.332 893.744 483.753 894.385C484.208 867.741 484.318 844.694 480.754 817.995C470.645 742.446 434.113 671.687 381.641 616.827C360.176 594.38 332.914 572.817 305.352 558.444C302.336 556.872 293.885 552.756 290.791 552.322ZM696.778 552.259C619.823 586.384 558.722 661.961 528.59 739.419C507.281 794.197 503.628 836.905 504.558 894.385C534.767 893.255 557.764 890.917 587.49 884.499C652.96 869.623 730.992 834.036 768.212 775.763C811.222 708.418 788.762 604.969 720.259 562.828C714.171 559.077 703.803 553.831 696.778 552.259ZM494.396 121.962C476.822 216.145 423.173 299.746 344.874 354.959C282.74 398.13 210.459 421.348 135.18 425.781C105.814 427.51 76.2644 426.571 46.8347 426.815C44.5178 447.245 45.0765 459.727 46.2498 480.054C81.5363 480.013 116.725 479.123 151.876 482.281C241.017 490.284 324.774 527.084 388.39 590.603C433.694 636.481 467.098 692.734 485.69 754.468C489.53 767.263 491.467 777.756 494.342 790.633C499.098 771.538 500.67 760.101 507.474 740.226C536.208 654.929 594.019 582.448 670.788 535.459C722.409 504.375 785.095 485.728 845.009 481.537C876.775 479.31 909.506 480.041 941.438 480.034C943.817 464.549 942.804 442.343 941.363 426.746C907.06 426.786 872.556 427.647 838.397 424.716C749.522 417.092 661.64 380.318 598.169 316.831C550.87 269.515 516.119 207.088 499.167 142.442C497.698 136.847 496.34 126.849 494.396 121.962ZM504.538 19.8471C504.248 42.2547 504.027 59.8164 506.551 82.3832C515.195 160.418 549.492 233.376 604.077 289.809C625.22 311.478 660.806 340.788 689.27 351.664C713.288 344.691 734.873 331.128 751.57 312.51C808.016 248.891 802.398 155.817 737.541 100.787C672.195 45.3331 588.807 22.271 504.538 19.8471ZM483.732 19.8637C478.164 20.0064 472.449 20.0684 466.916 20.5551C385.546 25.6945 288.499 55.4853 233.151 118.466C207.979 147.187 195.483 184.862 198.502 222.933C201.032 258.676 217.708 296.393 244.439 320.553C260.899 335.294 277.697 345.767 299.248 351.645C353.605 326.414 399.113 280.672 430.725 230.352C470.837 166.504 487.138 94.8094 483.732 19.8637Z" fill="white"/>
</g>
<defs>
<clipPath id="clip0_1_45">
<rect width="988" height="914" fill="white"/>
</clipPath>
</defs>
</svg>
